#!OML:ASF H:\LiuWeirdWalks\Patient Classification 1\Patient 1\Session 1\male.ASF
:FULLY-SPECIFIED
:DEGREES
991
root 2.7844 17.914 13.6823 2.28256 2.12049 5.96249
lowerback 2.10336 -7.64906 -9.83207
upperback -1.99454 -10.5277 0.690667
thorax -1.38106 -5.11883 6.29801
lowerneck -9.43437 3.99615 13.739
upperneck 20.5966 4.84865 -8.60586
head 8.50078 2.52245 -4.72366
rclavicle 1.45454e-014 -9.93923e-015
rhumerus -45.6931 -5.7429 -77.7101
rradius 26.1799
rwrist -3.84073
rhand -17.0747 -3.09277
rfingers 7.12502
rthumb 9.16323 -32.8737
lclavicle 1.45454e-014 -9.93923e-015
lhumerus -29.1422 -1.1661 83.4375
lradius 35.1317
lwrist 13.5417
lhand -10.864 -1.32439
lfingers 7.12502
lthumb 15.1515 28.1009
rfemur -32.5287 0.602389 12.3379
rtibia 22.2638
rfoot -16.8374 -19.756
rtoes -13.2982
lfemur 15.2059 -1.96375 -30.4024
ltibia 6.1502
lfoot -6.48404 5.92872
ltoes -19.7155
992
root 2.77066 17.9094 13.7755 2.38515 2.21961 5.97563
lowerback 1.99157 -7.66888 -9.77348
upperback -1.99643 -10.5391 0.736785
thorax -1.31992 -5.12884 6.2966
lowerneck -9.66917 4.02012 13.665
upperneck 20.6747 4.87165 -8.62405
head 8.5714 2.52232 -4.71452
rclavicle 7.5598e-014 2.66371e-014
rhumerus -45.5845 -5.80318 -77.5715
rradius 26.0787
rwrist -3.74296
rhand -17.1196 -2.90063
rfingers 7.12502
rthumb 9.11991 -32.6834
lclavicle 7.5598e-014 2.66371e-014
lhumerus -29.1524 -1.06346 83.4944
lradius 35.0512
lwrist 13.5466
lhand -10.8672 -1.34088
lfingers 7.12502
lthumb 15.1484 28.0847
rfemur -32.3062 0.738313 12.3071
rtibia 22.1565
rfoot -16.9067 -19.8106
rtoes -13.361
lfemur 15.4638 -2.12128 -30.3696
ltibia 6.05507
lfoot -6.29051 5.88615
ltoes -20.0355
993
root 2.75704 17.9044 13.8709 2.48036 2.33482 5.98333
lowerback 1.92155 -7.7646 -9.74862
upperback -2.00935 -10.6582 0.77293
thorax -1.27088 -5.19106 6.30567
lowerneck -9.83334 4.10902 13.7769
upperneck 20.7462 4.97559 -8.71438
head 8.64457 2.56914 -4.75339
rclavicle 4.8943e-015 1.66979e-014
rhumerus -45.4541 -5.70584 -77.593
rradius 25.9982
rwrist -3.67526
rhand -17.1476 -2.8121
rfingers 7.12502
rthumb 9.09288 -32.5961
lclavicle 4.8943e-015 1.66979e-014
lhumerus -29.2374 -0.812174 83.3887
lradius 34.9924
lwrist 13.5447
lhand -10.8241 -1.31889
lfingers 7.12502
lthumb 15.1899 28.1035
rfemur -32.0542 0.856452 12.2834
rtibia 22.0593
rfoot -16.9854 -19.8365
rtoes -13.4315
lfemur 15.7315 -2.293 -30.3319
ltibia 5.97857
lfoot -6.0927 5.84693
ltoes -20.3795
994
root 2.74249 17.899 13.9686 2.57532 2.45625 5.98837
lowerback 1.83788 -7.88072 -9.73549
upperback -2.05833 -10.8056 0.790492
thorax -1.24874 -5.2645 6.3017
lowerneck -9.79125 4.18679 13.9797
upperneck 20.7629 5.07783 -8.82951
head 8.6645 2.62336 -4.81726
rclavicle -1.24862e-015 -3.97569e-015
rhumerus -45.4118 -5.61087 -77.6294
rradius 25.9076
rwrist -3.52696
rhand -17.1 -2.62806
rfingers 7.12502
rthumb 9.13888 -32.4101
lclavicle -1.24862e-015 -3.97569e-015
lhumerus -29.4429 -0.552761 83.2178
lradius 34.9613
lwrist 13.5863
lhand -10.7693 -1.28139
lfingers 7.12502
lthumb 15.2428 28.137
rfemur -31.7843 0.983714 12.2635
rtibia 21.9715
rfoot -17.0647 -19.8584
rtoes -13.5199
lfemur 15.9854 -2.47178 -30.2863
ltibia 5.94314
lfoot -5.90397 5.81319
ltoes -20.7339
995
root 2.72714 17.8933 14.068 2.67306 2.58645 5.97735
lowerback 1.7675 -8.00195 -9.71406
upperback -2.11843 -10.9616 0.812862
thorax -1.24474 -5.34101 6.30081
lowerneck -9.71389 4.26659 14.2179
upperneck 20.7467 5.18532 -8.96815
head 8.66943 2.68096 -4.89444
rclavicle 1.84528e-014 -1.82882e-014
rhumerus -45.4009 -5.4842 -77.6791
rradius 25.8379
rwrist -3.3624
rhand -17.037 -2.36195
rfingers 7.12502
rthumb 9.1996 -32.1413
lclavicle 1.84528e-014 -1.82882e-014
lhumerus -29.6758 -0.25283 83.0194
lradius 34.9339
lwrist 13.5374
lhand -10.6883 -1.27594
lfingers 7.12502
lthumb 15.3208 28.1365
rfemur -31.5016 1.12616 12.2604
rtibia 21.8956
rfoot -17.125 -19.8831
rtoes -13.6106
lfemur 16.2235 -2.66035 -30.2183
ltibia 5.9408
lfoot -5.71424 5.78197
ltoes -21.0977
996
root 2.71125 17.8876 14.1689 2.77316 2.73136 5.97824
lowerback 1.71126 -8.14525 -9.72026
upperback -2.17702 -11.1494 0.828279
thorax -1.23795 -5.43319 6.30748
lowerneck -9.6428 4.37424 14.539
upperneck 20.7168 5.32374 -9.14524
head 8.67918 2.75572 -4.99529
rclavicle 8.36759e-014 1.11319e-014
rhumerus -45.3743 -5.31719 -77.7843
rradius 25.781
rwrist -3.22225
rhand -16.9987 -2.14919
rfingers 7.12502
rthumb 9.23663 -31.9269
lclavicle 8.36759e-014 1.11319e-014
lhumerus -29.9277 0.0823485 82.7695
lradius 34.9248
lwrist 13.5231
lhand -10.6046 -1.25394
lfingers 7.12502
lthumb 15.4014 28.1524
rfemur -31.2137 1.25468 12.2509
rtibia 21.8374
rfoot -17.1422 -19.9155
rtoes -13.705
lfemur 16.4428 -2.86467 -30.159
ltibia 5.97624
lfoot -5.52997 5.75217
ltoes -21.4752
997
root 2.69461 17.8825 14.2713 2.87797 2.88302 5.97068
lowerback 1.62347 -8.17482 -9.66474
upperback -2.22397 -11.1794 0.881406
thorax -1.23254 -5.44781 6.32151
lowerneck -9.73773 4.38149 14.5231
upperneck 20.716 5.33445 -9.19315
head 8.69822 2.75317 -5.00732
rclavicle 3.20369e-014 1.98785e-014
rhumerus -45.3925 -5.33192 -77.6478
rradius 25.7944
rwrist -3.15287
rhand -16.9239 -1.95706
rfingers 7.12502
rthumb 9.3088 -31.7315
lclavicle 3.20369e-014 1.98785e-014
lhumerus -30.0616 0.222794 82.7849
lradius 34.8714
lwrist 13.461
lhand -10.561 -1.26012
lfingers 7.12502
lthumb 15.4434 28.1429
rfemur -30.9403 1.36647 12.2633
rtibia 21.8079
rfoot -17.1029 -19.9548
rtoes -13.8218
lfemur 16.6625 -3.07755 -30.0846
ltibia 6.00287
lfoot -5.32946 5.70809
ltoes -21.8591
998
root 2.67772 17.8788 14.3743 2.98842 3.04361 5.96842
lowerback 1.54186 -8.20415 -9.61828
upperback -2.26396 -11.2096 0.934939
thorax -1.22148 -5.46301 6.34089
lowerneck -9.89277 4.39313 14.498
upperneck 20.7406 5.34133 -9.22172
head 8.73599 2.74892 -5.01138
rclavicle -1.58329e-014 -2.38542e-015
rhumerus -45.402 -5.29075 -77.5679
rradius 25.8889
rwrist -3.24764
rhand -16.8398 -2.01962
rfingers 7.12502
rthumb 9.38997 -31.7905
lclavicle -1.58329e-014 -2.38542e-015
lhumerus -30.1638 0.358789 82.7991
lradius 34.798
lwrist 13.4203
lhand -10.5415 -1.27954
lfingers 7.12502
lthumb 15.4622 28.1221
rfemur -30.7018 1.42875 12.2894
rtibia 21.8199
rfoot -16.981 -19.9978
rtoes -13.9772
lfemur 16.8936 -3.30113 -30.0122
ltibia 5.99012
lfoot -5.08864 5.63719
ltoes -22.2525
999
root 2.66122 17.8771 14.4776 3.09411 3.20546 5.95807
lowerback 1.44342 -8.11326 -9.48934
upperback -2.2976 -11.0752 1.01013
thorax -1.23364 -5.39612 6.3444
lowerneck -10.2053 4.28716 14.1196
upperneck 20.8441 5.19667 -9.08532
head 8.79406 2.65909 -4.91541
rclavicle -1.94032e-014 1.11319e-014
rhumerus -45.4708 -5.45955 -77.2538
rradius 26.0595
rwrist -3.44957
rhand -16.7042 -2.18247
rfingers 7.12502
rthumb 9.52071 -31.9474
lclavicle -1.94032e-014 1.11319e-014
lhumerus -30.1539 0.262463 83.0722
lradius 34.6691
lwrist 13.3752
lhand -10.5574 -1.29183
lfingers 7.12502
lthumb 15.4469 28.111
rfemur -30.5009 1.42572 12.3464
rtibia 21.8804
rfoot -16.7861 -20.0105
rtoes -14.1407
lfemur 17.1473 -3.52541 -29.93
ltibia 5.93499
lfoot -4.80203 5.53014
ltoes -22.6835
1000
root 2.64497 17.8781 14.5809 3.193 3.3522 5.91333
lowerback 1.37012 -8.04816 -9.34492
upperback -2.34002 -10.9781 1.08421
thorax -1.26527 -5.34678 6.34182
lowerneck -10.4515 4.20026 13.813
upperneck 20.9621 5.07787 -8.95587
head 8.85165 2.58801 -4.83216
rclavicle -1.47411e-014 -5.56597e-015
rhumerus -45.5323 -5.5855 -77.001
rradius 26.2246
rwrist -3.66828
rhand -16.5153 -2.40771
rfingers 7.12502
rthumb 9.70302 -32.1642
lclavicle -1.47411e-014 -5.56597e-015
lhumerus -30.1859 0.212794 83.2727
lradius 34.5523
lwrist 13.452
lhand -10.6273 -1.26739
lfingers 7.12502
lthumb 15.3795 28.1406
rfemur -30.3462 1.37642 12.4616
rtibia 21.9946
rfoot -16.5239 -20.0033
rtoes -14.2896
lfemur 17.4103 -3.73395 -29.8069
ltibia 5.8553
lfoot -4.47451 5.37734
ltoes -23.1407
